<svg width="18" height="17" viewBox="0 0 18 17" fill="none" xmlns="http://www.w3.org/2000/svg">
<g id="Icon">
<path d="M16.9869 8.34849C16.9867 8.54407 16.9089 8.73159 16.7705 8.8698L9.88525 15.755C9.69549 15.9395 9.42171 16.0088 9.16706 15.9367C8.91241 15.8646 8.71556 15.6621 8.65067 15.4055C8.58578 15.149 8.6627 14.8772 8.85246 14.6927L15.1967 8.34849L8.85246 2.00422C8.6551 1.82032 8.57386 1.54335 8.64061 1.28197C8.70736 1.02059 8.91146 0.816496 9.17283 0.749746C9.43421 0.682994 9.71118 0.764237 9.89508 0.961601L16.7803 7.84685C16.9104 7.98176 16.9843 8.16111 16.9869 8.34849Z" fill="#DB4C4C"/>
<path d="M16.977 8.34849C16.9718 8.7537 16.6446 9.08089 16.2393 9.08619L1.48525 9.08619C1.22169 9.08619 0.978154 8.94558 0.846376 8.71734C0.714598 8.48909 0.714598 8.20788 0.846376 7.97963C0.978154 7.75139 1.22169 7.61078 1.48525 7.61078L16.2393 7.61078C16.6446 7.61608 16.9718 7.94328 16.977 8.34849Z" fill="#DB4C4C"/>
<path d="M17.7049 8.34849C17.7046 8.73966 17.5489 9.11468 17.2721 9.39111L10.3869 16.2764C9.80834 16.8522 8.87255 16.85 8.29672 16.2714C7.7209 15.6929 7.7231 14.7571 8.30164 14.1813L14.1541 8.34849L8.32131 2.52553C7.74277 1.94971 7.74057 1.01391 8.3164 0.435371C8.89222 -0.14317 9.82802 -0.145371 10.4066 0.430454L17.2918 7.3157C17.559 7.59288 17.7072 7.96351 17.7049 8.34849Z" fill="#DB4C4C"/>
<path d="M17.7049 8.34849C17.7049 9.16333 17.0444 9.8239 16.2295 9.8239L1.47541 9.8239C0.660564 9.8239 9.89205e-07 9.16333 1.09606e-06 8.34848C1.20291e-06 7.53364 0.660565 6.87308 1.47541 6.87308L16.2295 6.87308C17.0444 6.87308 17.7049 7.53364 17.7049 8.34849Z" fill="#DB4C4C"/>
</g>
</svg>
