<svg width="19" height="18" viewBox="0 0 19 18" fill="none" xmlns="http://www.w3.org/2000/svg">
<g id="Icon">
<path d="M0.74959 8.72522C0.749769 8.52105 0.831022 8.32531 0.975483 8.18102L8.16298 0.993524C8.36107 0.800935 8.64686 0.728657 8.91269 0.803914C9.17853 0.879172 9.38402 1.09053 9.45176 1.35838C9.5195 1.62622 9.4392 1.90986 9.24111 2.10245L2.61834 8.72522L9.24111 15.348C9.44713 15.54 9.53194 15.8291 9.46226 16.1019C9.39258 16.3748 9.17952 16.5879 8.90667 16.6575C8.63382 16.7272 8.34469 16.6424 8.15271 16.4364L0.965215 9.24888C0.829437 9.10805 0.752344 8.92083 0.74959 8.72522Z" fill="white"/>
<path d="M0.759857 8.72522C0.765388 8.30222 1.10695 7.96066 1.52995 7.95513L16.9317 7.95513C17.2069 7.95513 17.4611 8.10191 17.5986 8.34018C17.7362 8.57844 17.7362 8.872 17.5986 9.11027C17.4611 9.34853 17.2069 9.49531 16.9317 9.49531L1.52995 9.49531C1.10695 9.48978 0.765388 9.14822 0.759857 8.72522Z" fill="white"/>
<path d="M3.58582e-05 8.72522C0.000396365 8.31688 0.162901 7.92539 0.451822 7.63683L7.63932 0.449327C8.24326 -0.151776 9.22014 -0.149477 9.82124 0.454461C10.4223 1.0584 10.42 2.03528 9.81611 2.63638L3.70673 8.72522L9.79557 14.8038C10.3995 15.4049 10.4018 16.3818 9.80071 16.9857C9.1996 17.5897 8.22272 17.592 7.61879 16.9908L0.431285 9.80335C0.152383 9.514 -0.00237696 9.1271 3.58582e-05 8.72522Z" fill="white"/>
<path d="M3.58582e-05 8.72522C3.58954e-05 7.8746 0.689598 7.18504 1.54021 7.18504L16.942 7.18504C17.7926 7.18504 18.4822 7.8746 18.4822 8.72522C18.4822 9.57584 17.7926 10.2654 16.942 10.2654L1.54021 10.2654C0.689598 10.2654 3.58211e-05 9.57584 3.58582e-05 8.72522Z" fill="white"/>
</g>
</svg>
