<svg width="18" height="17" viewBox="0 0 18 17" fill="none" xmlns="http://www.w3.org/2000/svg">
<g id="Icon">
<path d="M16.9869 8.34847C16.9867 8.54406 16.9089 8.73157 16.7705 8.86978L9.88525 15.755C9.69549 15.9395 9.42171 16.0088 9.16706 15.9367C8.91241 15.8646 8.71556 15.6621 8.65067 15.4055C8.58578 15.1489 8.6627 14.8772 8.85246 14.6927L15.1967 8.34847L8.85246 2.00421C8.6551 1.8203 8.57386 1.54333 8.64061 1.28196C8.70736 1.02058 8.91146 0.816482 9.17283 0.74973C9.43421 0.682979 9.71118 0.764222 9.89508 0.961585L16.7803 7.84683C16.9104 7.98174 16.9843 8.16109 16.9869 8.34847Z" fill="white"/>
<path d="M16.977 8.34847C16.9718 8.75368 16.6446 9.08088 16.2393 9.08618L1.48525 9.08618C1.22169 9.08618 0.978154 8.94557 0.846376 8.71732C0.714598 8.48908 0.714598 8.20786 0.846376 7.97962C0.978154 7.75137 1.22169 7.61076 1.48525 7.61076L16.2393 7.61077C16.6446 7.61606 16.9718 7.94326 16.977 8.34847Z" fill="white"/>
<path d="M17.7049 8.34847C17.7046 8.73964 17.5489 9.11467 17.2721 9.3911L10.3869 16.2763C9.80834 16.8522 8.87255 16.85 8.29672 16.2714C7.7209 15.6929 7.7231 14.7571 8.30164 14.1813L14.1541 8.34847L8.32131 2.52552C7.74277 1.94969 7.74057 1.0139 8.3164 0.435355C8.89222 -0.143185 9.82802 -0.145386 10.4066 0.430438L17.2918 7.31568C17.559 7.59287 17.7072 7.9635 17.7049 8.34847Z" fill="white"/>
<path d="M17.7049 8.34847C17.7049 9.16332 17.0444 9.82388 16.2295 9.82388L1.47541 9.82388C0.660564 9.82388 9.89205e-07 9.16332 1.09606e-06 8.34847C1.20291e-06 7.53362 0.660565 6.87306 1.47541 6.87306L16.2295 6.87306C17.0444 6.87306 17.7049 7.53363 17.7049 8.34847Z" fill="white"/>
</g>
</svg>
